<svg class="logo-svg" viewBox="0 0 680 148" xmlns="http://www.w3.org/2000/svg" xmlns:xlink="http://www.w3.org/1999/xlink"><title>Kanahoma</title><g stroke-width="1" fill="101938" fill-rule="evenodd"><g fill="#101938"><path d="M54.0859,0.0002 L82.8629,0.0002 L82.8629,5.2092 C80.7799,5.2092 78.9999,5.3392 77.5239,5.5992 C76.0469,5.8592 74.7249,6.3592 73.5529,7.0972 C72.3819,7.8342 71.2299,8.8112 70.1029,10.0262 C68.9739,11.2422 67.7139,12.8052 66.3259,14.7142 L46.4039,42.0582 L81.8209,86.4592 C83.9049,88.8022 85.8139,90.5602 87.5509,91.7332 C89.2859,92.9052 91.5429,93.5782 94.3209,93.7512 L94.3209,97.6582 L63.5919,97.6582 L33.6439,59.6352 L27.5239,68.1002 L27.5239,86.0682 C27.5239,88.9332 27.8919,90.9312 28.6309,92.0582 C29.3669,93.1872 31.2119,93.7512 34.1639,93.7512 L34.1639,97.6582 L-0.0001,97.6582 L-0.0001,93.7512 C2.5169,93.7512 4.2099,93.2532 5.0789,92.2532 C5.9449,91.2562 6.3799,89.1512 6.3799,85.9382 L6.3799,11.7192 C6.3799,10.3312 6.3359,9.1372 6.2499,8.1382 C6.1629,7.1422 5.9019,6.3372 5.4699,5.7292 C5.0339,5.1222 4.3829,4.6872 3.5169,4.4262 C2.6479,4.1662 1.4749,4.0362 -0.0001,4.0362 L-0.0001,0.0002 L34.1639,0.0002 L34.1639,3.9062 C32.8619,3.9062 31.7989,4.0172 30.9749,4.2322 C30.1489,4.4492 29.4769,4.8392 28.9559,5.4032 C28.4359,5.9692 28.0649,6.7502 27.8499,7.7482 C27.6319,8.7472 27.5239,10.0712 27.5239,11.7192 L27.5239,51.4332 L57.0809,10.2862 C58.5569,8.2912 59.1859,6.9462 58.9689,6.2502 C58.7519,5.5562 57.1239,5.2092 54.0859,5.2092 L54.0859,0.0002 Z"></path><path d="M135.7275,63.4113 C133.4685,64.9743 131.2355,66.2983 129.0225,67.3833 C126.8085,68.4693 124.8105,69.6423 123.0325,70.8993 C121.2515,72.1583 119.8415,73.6563 118.7995,75.3913 C117.7585,77.1293 117.2805,79.3853 117.3685,82.1613 C117.4545,83.9003 118.0835,85.1793 119.2565,86.0033 C120.4275,86.8293 121.9675,87.2413 123.8775,87.2413 C125.6145,87.2413 127.5015,86.9143 129.5425,86.2643 C131.5815,85.6133 133.6435,84.6363 135.7275,83.3343 L135.7275,63.4113 Z M156.9815,85.9383 C156.9815,89.1513 157.4145,91.2563 158.2835,92.2533 C159.1505,93.2533 160.8875,93.7513 163.4925,93.7513 L163.4925,97.6583 L135.7275,97.6583 L135.7275,92.4493 C132.7755,94.4473 129.4985,96.0303 125.8975,97.2013 C122.2935,98.3733 118.7125,98.9583 115.1545,98.9583 C110.0315,98.9583 105.7135,97.5493 102.1985,94.7283 C98.6825,91.9093 96.8375,87.7183 96.6645,82.1613 C96.5775,78.8653 97.1405,76.0413 98.3575,73.6993 C99.5725,71.3553 101.2005,69.3593 103.2405,67.7093 C105.2785,66.0603 107.6455,64.6483 110.3365,63.4773 C113.0265,62.3063 115.8485,61.2213 118.7995,60.2223 C121.7495,59.2253 124.6795,58.2263 127.5895,57.2273 C130.4975,56.2303 133.2085,55.0353 135.7275,53.6453 L135.7275,53.3853 C135.8135,50.6093 135.5975,48.2873 135.0765,46.4203 C134.5555,44.5553 133.8395,43.0143 132.9275,41.7973 C132.0165,40.5823 130.9755,39.7133 129.8025,39.1933 C128.6305,38.6723 127.4375,38.4123 126.2225,38.4123 C124.2245,38.4123 122.2505,39.0193 120.2975,40.2343 C118.3445,41.4523 117.0195,43.3593 116.3265,45.9643 C117.3685,47.6143 117.8885,49.2853 117.8885,50.9763 C117.8885,52.6703 117.4765,54.1903 116.6525,55.5353 C115.8265,56.8813 114.6335,58.0083 113.0715,58.9203 C111.5085,59.8313 109.7285,60.2873 107.7325,60.2873 L107.3415,60.2873 C104.3025,60.2873 101.7865,59.3753 99.7895,57.5533 C97.7915,55.7293 96.9245,52.7343 97.1855,48.5683 C97.4465,44.6623 98.6375,41.4943 100.7665,39.0633 C102.8925,36.6333 105.4315,34.7233 108.3835,33.3333 C111.3335,31.9463 114.3735,30.9903 117.4985,30.4683 C120.6235,29.9483 123.3125,29.6873 125.5715,29.6873 C130.1705,29.6873 134.3605,30.1003 138.1365,30.9253 C141.9125,31.7503 145.1675,33.1183 147.9025,35.0273 C150.6365,36.9373 153.1825,39.4333 154.7035,42.5143 C156.2205,45.5963 156.9815,49.3943 156.9815,53.9073 L156.9815,85.9383 Z"></path><path d="M225.1807,31.1853 C228.0457,32.1843 230.6057,33.6593 232.8637,35.6113 C235.1197,37.5653 236.9437,39.9963 238.3317,42.9043 C239.7197,45.8123 240.4577,49.1343 240.5457,52.8653 L240.5457,85.9383 C240.5457,89.1513 240.9797,91.2563 241.8487,92.2533 C242.7147,93.2533 244.4517,93.7513 247.0567,93.7513 L247.0567,97.6583 L213.2017,97.6583 L213.2017,93.6223 C215.8067,93.6223 217.5417,93.1453 218.4097,92.1883 C219.2777,91.2343 219.7117,89.1513 219.7117,85.9383 L219.7117,52.9953 C219.7117,48.5683 218.6697,45.2693 216.5867,43.0993 C214.5037,40.9303 212.1157,39.8443 209.4257,39.8443 C206.9067,39.8443 204.4977,40.8433 202.1997,42.8393 C199.8977,44.8373 198.3577,47.9173 197.5767,52.0843 L197.5767,85.8083 C197.5767,89.0213 198.0097,91.1253 198.8787,92.1233 C199.7447,93.1233 201.4837,93.6223 204.0867,93.6223 L204.0867,97.6583 L169.7417,97.6583 L169.7417,93.6223 C172.3447,93.6223 174.0797,93.1453 174.9497,92.1883 C175.8167,91.2343 176.2517,89.1513 176.2517,85.9383 L176.1217,44.2723 C176.2067,41.0613 175.8167,38.9553 174.9497,37.9563 C174.0797,36.9593 172.3447,36.4583 169.7417,36.4583 L169.7417,32.6833 L197.5767,32.6833 L197.5767,38.8023 C199.8327,35.6773 202.6327,33.3783 205.9757,31.9013 C209.3157,30.4263 212.7667,29.6873 216.3267,29.6873 C219.3647,29.6873 222.3167,30.1883 225.1807,31.1853"></path><path d="M294.7119,63.4113 C292.4529,64.9743 290.2189,66.2983 288.0059,67.3833 C285.7919,68.4693 283.7939,69.6423 282.0159,70.8993 C280.2349,72.1583 278.8259,73.6563 277.7839,75.3913 C276.7419,77.1293 276.2639,79.3853 276.3519,82.1613 C276.4379,83.9003 277.0679,85.1793 278.2399,86.0033 C279.4109,86.8293 280.9509,87.2413 282.8619,87.2413 C284.5979,87.2413 286.4859,86.9143 288.5259,86.2643 C290.5649,85.6133 292.6279,84.6363 294.7119,83.3343 L294.7119,63.4113 Z M316.1849,85.9383 C316.1849,89.1513 316.6179,91.2563 317.4859,92.2533 C318.3539,93.2533 320.0909,93.7513 322.6939,93.7513 L322.6939,97.6583 L294.7119,97.6583 L294.7119,92.4493 C291.7599,94.4473 288.4819,96.0303 284.8809,97.2013 C281.2769,98.3733 277.6959,98.9583 274.1379,98.9583 C269.0159,98.9583 264.6979,97.5493 261.1829,94.7283 C257.6669,91.9093 255.8209,87.7183 255.6489,82.1613 C255.5619,78.8653 256.1239,76.0413 257.3409,73.6993 C258.5559,71.3553 260.1839,69.3593 262.2249,67.7093 C264.2629,66.0603 266.6289,64.6483 269.3199,63.4773 C272.0099,62.3063 274.8319,61.2213 277.7839,60.2223 C280.7339,59.2253 283.6639,58.2263 286.5729,57.2273 C289.4809,56.2303 292.1919,55.0353 294.7119,53.6453 L294.7119,53.3853 C294.7969,50.6093 294.5809,48.2873 294.0609,46.4203 C293.5389,44.5553 292.8229,43.0143 291.9119,41.7973 C290.9999,40.5823 289.9589,39.7133 288.7869,39.1933 C287.6139,38.6723 286.4209,38.4123 285.2059,38.4123 C283.2079,38.4123 281.2339,39.0193 279.2809,40.2343 C277.3279,41.4523 276.0039,43.3593 275.3109,45.9643 C276.3519,47.6143 276.8729,49.2853 276.8729,50.9763 C276.8729,52.6703 276.4599,54.1903 275.6359,55.5353 C274.8099,56.8813 273.6169,58.0083 272.0549,58.9203 C270.4919,59.8313 268.7119,60.2873 266.7159,60.2873 L266.3249,60.2873 C263.2859,60.2873 260.7699,59.3753 258.7739,57.5533 C256.7749,55.7293 255.9089,52.7343 256.1689,48.5683 C256.4299,44.6623 257.6219,41.4943 259.7499,39.0633 C261.8759,36.6333 264.4149,34.7233 267.3669,33.3333 C270.3169,31.9463 273.3579,30.9903 276.4819,30.4683 C279.6069,29.9483 282.2969,29.6873 284.5549,29.6873 C289.1549,29.6873 293.3449,30.1003 297.1199,30.9253 C300.8959,31.7503 304.1509,33.1183 306.8859,35.0273 C309.6199,36.9373 312.3859,39.4333 313.9059,42.5143 C315.4239,45.5963 316.1849,49.3943 316.1849,53.9073 L316.1849,85.9383 Z"></path><path d="M384.0332,31.2512 C386.8992,32.2922 389.4582,33.7902 391.7172,35.7422 C393.9722,37.6952 395.7972,40.1042 397.1862,42.9692 C398.5732,45.8342 399.3112,49.1342 399.4002,52.8652 L399.4002,85.9382 C399.4002,89.1512 399.8332,91.2562 400.7022,92.2532 C401.5682,93.2532 403.3042,93.7512 405.9112,93.7512 L405.9112,97.6582 L372.0552,97.6582 L372.0552,93.6222 C374.6602,93.6222 376.3952,93.1452 377.2622,92.1882 C378.1312,91.2342 378.5652,89.1512 378.5652,85.9382 L378.5652,52.9952 C378.5652,48.5682 377.5232,45.2702 375.4402,43.0992 C373.3582,40.9302 370.9682,39.8442 368.2792,39.8442 C365.7602,39.8442 363.3962,40.7772 361.1822,42.6442 C358.9702,44.5112 357.4262,47.3972 356.5592,51.3032 L356.5592,88.8022 C356.5592,90.6262 357.1012,91.9092 358.1872,92.6442 C359.2722,93.3832 360.8992,93.7512 363.0702,93.7512 L363.0702,97.6582 L328.7022,97.6582 L328.7022,93.7512 C331.3062,93.7512 333.0422,93.3832 333.9112,92.6442 C334.7772,91.9092 335.2132,90.5412 335.2132,88.5432 L335.2132,11.5892 C335.2132,8.3772 334.7772,6.2952 333.9112,5.3392 C333.0422,4.3842 331.3062,3.9062 328.7022,3.9062 L328.7022,0.0002 L356.5592,0.0002 L356.5592,38.6722 C358.8172,35.6342 361.5942,33.3782 364.8932,31.9012 C368.1912,30.4262 371.6202,29.6882 375.1802,29.6882 C378.2172,29.6882 381.1702,30.2082 384.0332,31.2512"></path><path d="M439.415,41.862 C438.006,43.991 436.972,46.529 436.31,49.48 C435.645,52.432 435.273,55.384 435.191,58.334 C435.107,61.286 435.067,63.63 435.067,65.365 C435.067,66.495 435.088,67.926 435.13,69.662 C435.17,71.4 435.273,73.265 435.44,75.261 C435.604,77.259 435.915,79.256 436.372,81.251 C436.826,83.248 437.428,85.05 438.173,86.655 C438.918,88.262 439.892,89.564 441.093,90.56 C442.292,91.56 443.762,92.058 445.503,92.058 C447.241,92.058 448.731,91.56 449.974,90.56 C451.217,89.564 452.251,88.262 453.079,86.655 C453.906,85.05 454.549,83.248 455.006,81.251 C455.46,79.256 455.791,77.259 455.999,75.261 C456.204,73.265 456.311,71.4 456.311,69.662 L456.311,65.365 C456.311,63.63 456.247,61.286 456.123,58.334 C455.999,55.384 455.605,52.432 454.943,49.48 C454.279,46.529 453.204,43.991 451.715,41.862 C450.223,39.736 448.152,38.673 445.503,38.673 C442.852,38.673 440.822,39.736 439.415,41.862 M432.602,98.374 C428.696,97.116 425.288,95.076 422.382,92.254 C419.472,89.434 417.193,85.808 415.545,81.382 C413.894,76.955 413.07,71.615 413.07,65.365 C413.07,59.464 413.872,54.277 415.479,49.805 C417.086,45.336 419.32,41.602 422.186,38.607 C425.05,35.612 428.436,33.356 432.342,31.836 C436.249,30.319 440.501,29.557 445.102,29.557 C449.702,29.557 454,30.319 457.993,31.836 C461.986,33.356 465.458,35.612 468.41,38.607 C471.359,41.602 473.66,45.336 475.312,49.805 C476.959,54.277 477.785,59.464 477.785,65.365 C477.785,71.702 476.939,77.085 475.246,81.511 C473.553,85.938 471.231,89.542 468.281,92.318 C465.328,95.098 461.878,97.116 457.929,98.374 C453.977,99.631 449.746,100.262 445.232,100.262 C440.719,100.262 436.51,99.631 432.602,98.374"></path><path d="M555.2588,85.9382 C555.2588,89.1512 555.6918,91.2562 556.5618,92.2532 C557.4268,93.2532 559.1648,93.7512 561.7698,93.7512 L561.7698,97.6582 L527.9138,97.6582 L527.9138,93.6222 C530.5198,93.6222 532.2548,93.1452 533.1228,92.1882 C533.9898,91.2342 534.4238,89.1512 534.4238,85.9382 L534.4238,52.9952 C534.4238,48.5682 533.3828,45.2702 531.3008,43.0992 C529.2168,40.9302 526.8278,39.8442 524.1378,39.8442 C521.6188,39.8442 519.2548,40.7772 517.0408,42.6442 C514.8278,44.5112 513.2858,47.3972 512.4188,51.3032 L512.4188,86.0682 C512.4188,89.2822 512.8528,91.3652 513.7218,92.3182 C514.5878,93.2762 516.3258,93.7512 518.9288,93.7512 L518.9288,97.6582 L484.3708,97.6582 L484.3708,93.7512 C486.9738,93.7512 488.7318,93.2762 489.6428,92.3182 C490.5558,91.3652 491.0098,89.2822 491.0098,86.0682 L491.0098,44.1422 C491.0968,40.9302 490.6838,38.8472 489.7748,37.8922 C488.8618,36.9372 487.1048,36.4592 484.4998,36.4592 L484.4998,32.5522 L512.4188,32.5522 L512.4188,38.6722 C514.6758,35.6342 517.4538,33.3782 520.7538,31.9012 C524.0508,30.4262 527.4798,29.6882 531.0398,29.6882 C535.4668,29.6882 539.6988,30.7942 543.7358,33.0092 C547.7718,35.2212 550.7868,38.4122 552.7838,42.5782 C554.9538,38.1522 557.9478,34.8962 561.7698,32.8132 C565.5888,30.7292 569.6248,29.6882 573.8788,29.6882 C576.9158,29.6882 579.8688,30.2082 582.7328,31.2512 C585.5978,32.2922 588.1568,33.7902 590.4158,35.7422 C592.6718,37.6952 594.4938,40.1042 595.8848,42.9692 C597.2718,45.8342 598.0098,49.1342 598.0978,52.8652 L598.0978,85.9382 C598.0978,89.1512 598.5298,91.2562 599.4008,92.2532 C600.2668,93.2532 602.0038,93.7512 604.6088,93.7512 L604.6088,97.6582 L570.7528,97.6582 L570.7528,93.6222 C573.3588,93.6222 575.0938,93.1452 575.9618,92.1882 C576.8288,91.2342 577.2628,89.1512 577.2628,85.9382 L577.2628,52.9952 C577.2628,48.5682 576.2218,45.2702 574.1398,43.0992 C572.0558,40.9302 569.6668,39.8442 566.9768,39.8442 C564.4588,39.8442 562.0728,40.8202 559.8178,42.7742 C557.5588,44.7272 555.9948,47.7022 555.1288,51.6932 C555.1288,51.8682 555.1498,52.0632 555.1948,52.2802 C555.2368,52.4972 555.2588,52.6932 555.2588,52.8652 L555.2588,85.9382 Z"></path><path d="M652.2656,63.4113 C650.0066,64.9743 647.7716,66.2983 645.5596,67.3833 C643.3446,68.4693 641.3476,69.6423 639.5696,70.8993 C637.7886,72.1583 636.3776,73.6563 635.3366,75.3913 C634.2956,77.1293 633.8176,79.3853 633.9046,82.1613 C633.9906,83.9003 634.6216,85.1793 635.7926,86.0033 C636.9646,86.8293 638.5056,87.2413 640.4136,87.2413 C642.1516,87.2413 644.0386,86.9143 646.0796,86.2643 C648.1196,85.6133 650.1806,84.6363 652.2656,83.3343 L652.2656,63.4113 Z M673.4896,85.9383 C673.4896,89.1513 673.9226,91.2563 674.7906,92.2533 C675.6586,93.2533 677.3956,93.7513 679.9996,93.7513 L679.9996,97.6583 L652.2656,97.6583 L652.2656,92.4493 C649.3126,94.4473 646.0356,96.0303 642.4336,97.2013 C638.8316,98.3733 635.2496,98.9583 631.6916,98.9583 C626.5676,98.9583 622.2496,97.5493 618.7346,94.7283 C615.2186,91.9093 613.3746,87.7183 613.2026,82.1613 C613.1146,78.8653 613.6786,76.0413 614.8946,73.6993 C616.1096,71.3553 617.7376,69.3593 619.7776,67.7093 C621.8166,66.0603 624.1826,64.6483 626.8726,63.4773 C629.5626,62.3063 632.3856,61.2213 635.3366,60.2223 C638.2866,59.2253 641.2156,58.2263 644.1276,57.2273 C647.0346,56.2303 649.7456,55.0353 652.2656,53.6453 L652.2656,53.3853 C652.3496,50.6093 652.1336,48.2873 651.6136,46.4203 C651.0926,44.5553 650.3776,43.0143 649.4646,41.7973 C648.5526,40.5823 647.5116,39.7133 646.3396,39.1933 C645.1686,38.6723 643.9746,38.4123 642.7596,38.4123 C640.7616,38.4123 638.7866,39.0193 636.8346,40.2343 C634.8816,41.4523 633.5566,43.3593 632.8626,45.9643 C633.9046,47.6143 634.4256,49.2853 634.4256,50.9763 C634.4256,52.6703 634.0126,54.1903 633.1886,55.5353 C632.3636,56.8813 631.1706,58.0083 629.6076,58.9203 C628.0456,59.8313 626.2656,60.2873 624.2696,60.2873 L623.8776,60.2873 C620.8396,60.2873 618.3226,59.3753 616.3266,57.5533 C614.3286,55.7293 613.4626,52.7343 613.7236,48.5683 C613.9836,44.6623 615.1736,41.4943 617.3026,39.0633 C619.4286,36.6333 621.9686,34.7233 624.9206,33.3333 C627.8706,31.9463 630.9106,30.9903 634.0356,30.4683 C637.1596,29.9483 639.8486,29.6873 642.1076,29.6873 C646.7076,29.6873 650.8986,30.1003 654.6736,30.9253 C658.4506,31.7503 661.7046,33.1183 664.4396,35.0273 C667.1746,36.9373 669.6896,39.4333 671.2096,42.5143 C672.7286,45.5963 673.4896,49.3943 673.4896,53.9073 L673.4896,85.9383 Z"></path><polygon points="119.835 146.3562 119.835 130.0872 130.611 130.0872 130.611 132.6162 122.73 132.6162 122.73 136.7522 130.198 136.7522 130.198 139.1872 122.73 139.1872 122.73 143.7832 131.025 143.7832 131.025 146.3562"></polygon><path d="M145.9375,143.8279 L148.3505,143.8279 C148.9785,143.8279 149.5805,143.7749 150.1545,143.6679 C150.7285,143.5599 151.2995,143.3729 151.8665,143.1049 C152.4325,142.8379 152.9185,142.4999 153.3255,142.0949 C153.7315,141.6879 154.0605,141.1519 154.3135,140.4859 C154.5655,139.8189 154.6925,139.0649 154.6925,138.2229 C154.6925,134.4539 152.5785,132.5689 148.3505,132.5689 L145.9375,132.5689 L145.9375,143.8279 Z M143.0415,146.3559 L143.0415,130.0879 L148.8105,130.0879 C149.9435,130.0879 151.0155,130.2289 152.0275,130.5129 C153.0385,130.7969 153.9875,131.2409 154.8755,131.8459 C155.7645,132.4509 156.4735,133.3009 157.0015,134.3959 C157.5305,135.4909 157.7935,136.7669 157.7935,138.2229 C157.7935,139.5859 157.5305,140.8039 157.0015,141.8759 C156.4735,142.9479 155.7685,143.8029 154.8875,144.4369 C154.0065,145.0729 153.0495,145.5519 152.0155,145.8729 C150.9815,146.1939 149.9135,146.3559 148.8105,146.3559 L143.0415,146.3559 Z"></path><path d="M182.749,130.0876 L182.749,140.3816 C182.749,142.3126 182.132,143.8586 180.898,145.0236 C179.665,146.1876 178.1,146.7696 176.2,146.7696 C174.3,146.7696 172.733,146.1876 171.501,145.0236 C170.268,143.8586 169.651,142.3126 169.651,140.3816 L169.651,130.0876 L172.547,130.0876 L172.547,140.2676 C172.547,141.3556 172.837,142.2776 173.42,143.0346 C174.002,143.7936 174.929,144.1736 176.2,144.1736 C177.472,144.1736 178.398,143.7936 178.98,143.0346 C179.562,142.2776 179.853,141.3556 179.853,140.2676 L179.853,130.0876 L182.749,130.0876 Z"></path><path d="M209.334,132.156 L207.128,133.902 C206.73,133.35 206.189,132.932 205.508,132.65 C204.826,132.366 204.133,132.225 203.429,132.225 C201.773,132.225 200.422,132.792 199.373,133.925 C198.323,135.058 197.799,136.475 197.799,138.177 C197.799,139.953 198.3,141.397 199.304,142.507 C200.307,143.619 201.644,144.174 203.313,144.174 C205.029,144.174 206.347,143.546 207.266,142.289 L209.587,143.921 C208.07,145.821 205.972,146.769 203.291,146.769 C200.747,146.769 198.664,145.97 197.04,144.368 C195.417,142.767 194.605,140.703 194.605,138.177 C194.605,135.618 195.436,133.561 197.098,132.007 C198.76,130.451 200.87,129.675 203.429,129.675 C204.563,129.675 205.676,129.885 206.771,130.305 C207.867,130.727 208.721,131.344 209.334,132.156"></path><path d="M224.293,140.1521 L229.348,140.1521 L226.844,133.5341 L224.293,140.1521 Z M218.594,146.3561 L225.671,130.0881 L228.176,130.0881 L235.185,146.3561 L231.875,146.3561 L230.359,142.6341 L223.305,142.6341 L221.834,146.3561 L218.594,146.3561 Z"></path><polygon points="247.8906 146.3562 247.8906 132.6162 242.9056 132.6162 242.9056 130.0872 255.7726 130.0872 255.7726 132.6162 250.7866 132.6162 250.7866 146.3562"></polygon><polygon points="266.848 146.357 269.744 146.357 269.744 130.088 266.848 130.088"></polygon><path d="M284.8857,138.1765 C284.8857,139.9215 285.4067,141.3585 286.4477,142.4845 C287.4897,143.6095 288.8307,144.1735 290.4697,144.1735 C292.1237,144.1735 293.4717,143.6095 294.5137,142.4845 C295.5557,141.3585 296.0757,139.9215 296.0757,138.1765 C296.0757,136.4755 295.5597,135.0585 294.5257,133.9245 C293.4907,132.7915 292.1387,132.2255 290.4697,132.2255 C288.8157,132.2255 287.4707,132.7915 286.4377,133.9245 C285.4037,135.0585 284.8857,136.4755 284.8857,138.1765 M281.7387,138.1765 C281.7387,135.6035 282.5537,133.5415 284.1847,131.9945 C285.8167,130.4475 287.9047,129.6745 290.4477,129.6745 C293.0207,129.6745 295.1267,130.4475 296.7667,131.9945 C298.4057,133.5415 299.2247,135.6035 299.2247,138.1765 C299.2247,140.7025 298.4007,142.7675 296.7537,144.3675 C295.1077,145.9705 293.0047,146.7695 290.4477,146.7695 C287.9187,146.7695 285.8357,145.9705 284.1977,144.3675 C282.5577,142.7675 281.7387,140.7025 281.7387,138.1765"></path><polygon points="311.2187 146.3562 311.2187 130.0872 315.0557 130.0872 322.6157 142.2662 322.6617 142.2662 322.6617 130.0872 325.5567 130.0872 325.5567 146.3562 321.8807 146.3562 314.1597 133.7872 314.1147 133.7872 314.1147 146.3562"></polygon><polygon points="353.2686 146.3562 353.2686 130.0872 357.7956 130.0872 362.0236 141.6452 362.0936 141.6452 366.2746 130.0872 370.8256 130.0872 370.8256 146.3562 367.9536 146.3562 367.9536 133.2812 367.9076 133.2812 362.9656 146.3562 360.9446 146.3562 356.0726 133.2812 356.0276 133.2812 356.0276 146.3562"></polygon><path d="M387.3232,140.1521 L392.3782,140.1521 L389.8742,133.5341 L387.3232,140.1521 Z M381.6232,146.3561 L388.7022,130.0881 L391.2072,130.0881 L398.2142,146.3561 L394.9042,146.3561 L393.3892,142.6341 L386.3362,142.6341 L384.8632,146.3561 L381.6232,146.3561 Z"></path><path d="M411.9092,137.0964 L414.2762,137.0964 C416.6052,137.0964 417.7692,136.3074 417.7692,134.7294 C417.7692,133.9334 417.4552,133.3674 416.8272,133.0284 C416.1982,132.6924 415.4322,132.5234 414.5292,132.5234 L411.9092,132.5234 L411.9092,137.0964 Z M409.0142,146.3564 L409.0142,130.0874 L414.6672,130.0874 C415.7542,130.0874 416.7312,130.2294 417.5962,130.5124 C418.4622,130.7964 419.1902,131.3024 419.7802,132.0294 C420.3692,132.7574 420.6642,133.6634 420.6642,134.7514 C420.6642,135.9014 420.3352,136.8554 419.6752,137.6144 C419.0162,138.3704 418.1052,138.8804 416.9422,139.1414 L421.2852,146.3564 L417.7922,146.3564 L414.0232,139.4624 L411.9092,139.4624 L411.9092,146.3564 L409.0142,146.3564 Z"></path><polygon points="432.6592 146.3562 432.6592 130.0872 435.5542 130.0872 435.5542 137.1192 435.6222 137.1192 442.4252 130.0872 446.3302 130.0872 438.7242 137.6012 446.8362 146.3562 442.7702 146.3562 435.6222 138.1992 435.5542 138.1992 435.5542 146.3562"></polygon><polygon points="457.6816 146.3562 457.6816 130.0872 468.4586 130.0872 468.4586 132.6162 460.5776 132.6162 460.5776 136.7522 468.0456 136.7522 468.0456 139.1872 460.5776 139.1872 460.5776 143.7832 468.8716 143.7832 468.8716 146.3562"></polygon><polygon points="484.1758 146.3562 484.1758 132.6162 479.1898 132.6162 479.1898 130.0872 492.0568 130.0872 492.0568 132.6162 487.0718 132.6162 487.0718 146.3562"></polygon><polygon points="503.133 146.357 506.029 146.357 506.029 130.088 503.133 130.088"></polygon><polygon points="518.8047 146.3562 518.8047 130.0872 522.6407 130.0872 530.2007 142.2662 530.2467 142.2662 530.2467 130.0872 533.1427 130.0872 533.1427 146.3562 529.4647 146.3562 521.7457 133.7872 521.6997 133.7872 521.6997 146.3562"></polygon><path d="M560.165,137.0739 L560.165,145.5069 C558.403,146.3479 556.356,146.7689 554.029,146.7689 C551.409,146.7689 549.271,145.9729 547.617,144.3799 C545.964,142.7869 545.137,140.7199 545.137,138.1769 C545.137,135.6179 545.967,133.5609 547.629,132.0069 C549.293,130.4509 551.402,129.6749 553.96,129.6749 C555.217,129.6749 556.393,129.8579 557.487,130.2249 C558.583,130.5929 559.467,131.0919 560.142,131.7199 L558.143,133.8799 C557.714,133.4039 557.123,133.0089 556.373,132.6949 C555.622,132.3829 554.825,132.2249 553.984,132.2249 C552.298,132.2249 550.936,132.7919 549.894,133.9249 C548.852,135.0579 548.331,136.4749 548.331,138.1769 C548.331,139.9379 548.855,141.3779 549.904,142.4969 C550.953,143.6139 552.359,144.1739 554.122,144.1739 C555.362,144.1739 556.442,143.9819 557.362,143.5989 L557.362,139.4629 L553.936,139.4629 L553.936,137.0739 L560.165,137.0739 Z"></path><polygon points="33.525 140.687 98.076 140.687 98.076 137.624 33.525 137.624"></polygon><polygon points="581.924 140.687 646.475 140.687 646.475 137.624 581.924 137.624"></polygon></g></g></svg>